<?xml version="1.0" encoding="utf-8"?>
<!-- Generator: Adobe Illustrator 14.0.0, SVG Export Plug-In . SVG Version: 6.00 Build 43363)  -->
<!DOCTYPE svg PUBLIC "-//W3C//DTD SVG 1.1//EN" "http://www.w3.org/Graphics/SVG/1.1/DTD/svg11.dtd">
<svg version="1.1" xmlns="http://www.w3.org/2000/svg" xmlns:xlink="http://www.w3.org/1999/xlink" x="0px" y="0px"
	 width="595.28px" height="841.89px" viewBox="0 0 595.28 841.89" enable-background="new 0 0 595.28 841.89" xml:space="preserve">
<g id="Layer_1">
	<g>
		<path fill="#A40C01" d="M483.226,429.946c-14.793,0-27.139,4.948-37.084,14.894c-9.947,9.946-14.895,22.291-14.895,37.086
			c0,14.744,4.947,27.139,14.895,37.135c9.945,9.996,22.291,14.994,37.084,14.994c14.744,0,27.141-4.998,37.137-14.994
			s14.994-22.391,14.994-37.135c0-14.795-4.998-27.14-14.994-37.086C510.367,434.894,497.97,429.946,483.226,429.946
			L483.226,429.946z M483.328,454.885c7.496,0,13.844,2.649,19.092,7.897c5.348,5.348,7.996,11.745,7.996,19.242
			s-2.648,13.845-7.996,19.093c-5.248,5.348-11.596,7.996-19.092,7.996c-7.498,0-13.895-2.648-19.242-7.996
			c-5.248-5.248-7.848-11.596-7.848-19.093s2.6-13.895,7.848-19.242C469.433,457.535,475.83,454.885,483.328,454.885
			L483.328,454.885z"/>
		<path fill="#A40C01" d="M216.684,339.032c-2.049,0-3.699,0.65-5.048,1.949c-1.35,1.35-2.049,2.999-2.049,5.048v18.143
			c0,1.399-0.45,2.549-1.35,3.499c-0.899,0.95-2.049,1.399-3.449,1.399s-2.599-0.45-3.548-1.399s-1.399-2.099-1.399-3.499v-18.143
			c0-2.099-0.65-3.798-1.949-5.048c-1.3-1.299-2.999-1.949-5.098-1.949c-2.049,0-3.698,0.65-5.048,1.949
			c-1.3,1.35-1.949,2.999-1.949,5.048v18.143c0,5.448,1.799,9.946,5.448,13.544s8.197,5.398,13.645,5.398
			c1.649,0,3.199-0.2,4.698-0.55c-0.15,1.199-0.65,2.199-1.6,2.999c-0.95,0.8-2.049,1.2-3.249,1.2h-0.3
			c-2.049,0-3.749,0.65-5.098,1.999c-1.35,1.35-2.049,3.049-2.049,5.098s0.65,3.699,2,4.998c1.349,1.299,2.999,1.949,5.048,1.949
			h0.35c5.348,0,9.846-1.799,13.494-5.448c3.649-3.648,5.448-8.147,5.448-13.495v-35.836c0-2.049-0.65-3.698-1.949-5.048
			C220.382,339.682,218.732,339.032,216.684,339.032L216.684,339.032z"/>
		<path fill="#A40C01" d="M178.299,345.28c-4.248-4.248-9.496-6.397-15.744-6.397c-2.049,0-3.699,0.65-4.998,1.999
			c-1.35,1.35-1.999,2.999-1.999,5.048c0,2.049,0.649,3.749,1.999,5.048c1.299,1.299,2.949,1.949,4.998,1.949
			c2.249,0,4.148,0.8,5.748,2.349c1.549,1.599,2.349,3.499,2.349,5.748s-0.8,4.198-2.349,5.748c-1.599,1.55-3.499,2.299-5.748,2.299
			s-4.198-0.75-5.748-2.299c-1.55-1.549-2.299-3.499-2.299-5.748v-31.487c0-2.049-0.65-3.699-1.999-4.998
			c-1.35-1.299-2.999-1.949-5.048-1.949c-1.999,0-3.648,0.65-4.998,1.999c-1.349,1.35-1.999,2.999-1.999,4.948v31.487
			c0,6.198,2.149,11.445,6.397,15.694c4.249,4.248,9.496,6.397,15.694,6.397c6.197,0,11.445-2.149,15.744-6.397
			c4.248-4.249,6.397-9.446,6.397-15.694S182.547,349.528,178.299,345.28L178.299,345.28z"/>
		<path fill="#A40C01" d="M137.315,340.981c-1.3-1.299-2.949-1.949-4.998-1.949c-2.049,0-3.699,0.65-5.048,1.949
			c-1.349,1.35-2.049,2.999-2.049,5.048v18.143c0,1.399-0.45,2.549-1.35,3.499c-0.9,0.95-2.049,1.399-3.449,1.399
			s-2.599-0.45-3.548-1.399s-1.399-2.099-1.399-3.499v-18.043c0-2.049-0.65-3.749-2-5.098c-1.35-1.35-2.999-2-5.048-2
			s-3.699,0.65-5.048,2c-1.3,1.349-1.949,3.049-1.949,5.098v17.993c0,5.448,1.799,9.946,5.397,13.595
			c3.649,3.599,8.197,5.398,13.595,5.398c5.348,0,9.796-1.799,13.445-5.448c3.599-3.649,5.398-8.147,5.398-13.495V346.03
			C139.265,343.98,138.615,342.331,137.315,340.981L137.315,340.981z"/>
		<path fill="#A40C01" d="M93.933,328.936c-4.249-4.248-9.496-6.347-15.744-6.347s-11.496,2.099-15.744,6.347
			c-4.249,4.249-6.348,9.446-6.348,15.694v31.538c0,1.949,0.65,3.599,1.999,4.948c1.35,1.349,2.999,1.999,4.998,1.999
			c2.049,0,3.699-0.65,5.048-1.949c1.35-1.3,2-2.949,2-4.998V344.63c0-2.249,0.75-4.148,2.299-5.698
			c1.549-1.549,3.498-2.299,5.748-2.299c2.249,0,4.148,0.75,5.748,2.299c1.549,1.55,2.349,3.449,2.349,5.698
			c0,2.25-0.8,4.199-2.349,5.748c-1.6,1.599-3.499,2.399-5.748,2.399c-1.849,0-3.499,0.7-4.898,2.049
			c-1.399,1.4-2.1,3.049-2.1,4.948v4.398c0,5.397,1.799,9.896,5.398,13.544c3.549,3.599,8.047,5.398,13.495,5.398
			c2.049,0,3.699-0.65,5.048-1.949c1.35-1.3,2.049-2.949,2.049-4.998c0-2.099-0.7-3.799-2.049-5.098
			c-1.349-1.349-3.049-1.999-5.147-1.999c-2.399,0-3.898-1.149-4.548-3.449c4.448-1.549,8.097-4.198,10.846-8.047
			c2.699-3.848,4.048-8.146,4.048-12.945C100.33,338.382,98.181,333.185,93.933,328.936L93.933,328.936z"/>
		<path fill="#A40C01" d="M241.124,429.896c-12.645,0-23.241,4.248-31.887,12.745c-8.546,8.496-12.795,19.042-12.795,31.687v42.934
			c0,4.798,1.55,8.746,4.598,11.845c3.049,3.049,6.998,4.599,11.795,4.599c4.848,0,8.796-1.55,11.945-4.599
			c3.148-3.099,4.698-7.047,4.698-11.845v-42.934c0-3.248,1.1-5.997,3.349-8.146s5.048-3.249,8.396-3.249
			c3.149,0,5.848,1.1,8.097,3.349c2.249,2.25,3.349,4.898,3.349,8.047v56.328c0,12.744,4.249,23.391,12.745,31.937
			c8.497,8.497,19.142,12.745,31.887,12.745h0.7c4.797,0,8.796-1.549,11.946-4.598c3.148-3.049,4.697-6.998,4.697-11.796
			c0-4.848-1.549-8.796-4.697-11.945c-3.149-3.148-7.148-4.698-11.946-4.698h-0.7c-3.249,0-5.998-1.099-8.247-3.349
			c-2.199-2.198-3.299-4.947-3.299-8.196v-56.428c0-12.645-4.298-23.19-12.845-31.687
			C264.265,434.144,253.668,429.896,241.124,429.896L241.124,429.896z"/>
		<path fill="#A40C01" d="M354.078,429.596c3.648,3.698,5.498,8.196,5.498,13.494s-1.85,9.796-5.498,13.495
			c-3.748,3.748-8.296,5.647-13.594,5.647c-4.348,0-8.197,1.649-11.545,4.897c-3.249,3.249-4.898,7.098-4.898,11.546v10.396
			c0,12.695,4.198,23.341,12.645,31.888c8.447,8.496,19.043,12.745,31.787,12.745c4.799,0,8.748-1.55,11.896-4.599
			c3.197-3.099,4.797-7.047,4.797-11.845c0-4.948-1.6-8.947-4.797-11.996c-3.148-3.099-7.148-4.647-12.096-4.647
			c-5.648,0-9.246-2.699-10.695-8.097c10.545-3.648,19.041-9.996,25.49-19.043c6.396-8.996,9.596-19.143,9.596-30.388
			c0-14.744-4.998-27.089-15.045-37.035c-9.996-9.946-22.391-14.944-37.135-14.944c-14.794,0-27.139,4.998-37.035,14.944
			c-9.946,9.946-14.944,22.291-14.944,37.035v74.17c0,4.698,1.549,8.597,4.698,11.746c3.149,3.148,7.047,4.698,11.695,4.698
			c4.848,0,8.797-1.55,11.945-4.599c3.148-3.099,4.698-7.047,4.698-11.846v-74.17c0-5.298,1.8-9.796,5.448-13.494
			c3.698-3.648,8.196-5.448,13.494-5.448S350.33,425.948,354.078,429.596L354.078,429.596z"/>
		<path fill="#A40C01" d="M411.906,429.896c-4.799,0-8.746,1.549-11.795,4.598c-3.1,3.099-4.648,7.048-4.648,11.846v70.922
			c0,4.798,1.549,8.746,4.648,11.845c3.049,3.049,6.996,4.599,11.795,4.599c4.797,0,8.797-1.55,11.945-4.599
			c3.148-3.099,4.697-7.047,4.697-11.845v-70.922c0-4.948-1.549-8.896-4.598-11.945
			C420.851,431.395,416.853,429.896,411.906,429.896L411.906,429.896z"/>
		
			<path fill="none" stroke="#A60C05" stroke-width="4.998" stroke-linecap="round" stroke-linejoin="round" stroke-miterlimit="10" d="
			M401.46,311.993l-46.582-16.543 M373.271,350.778c-43.633-70.622-74.121-94.712-91.463-72.271
			c-17.443,22.441-33.437,59.177-47.981,110.206 M373.97,376.817c2.85-7.297,5.748-14.544,8.697-21.791
			c4.148-10.196,10.295-18.893,18.492-26.04c9.445-8.297,20.441-11.746,32.887-10.346c12.246,1.549,23.891,5.248,34.836,11.045
			c11.096,5.948,20.893,13.645,29.338,23.141c8.197,9.296,15.744,18.942,22.641,28.938c7.098,10.196,13.545,20.792,19.344,31.737"/>
	</g>
	<polygon fill="none" stroke="#A31D21" stroke-width="10" points="401.014,397.115 394.056,408.211 412.274,423.766 
		430.492,408.211 423.533,397.115 	"/>
	<path fill="#A40C01" d="M120.242,391.377c-39.473,0-71.471,31.999-71.471,71.471s31.999,71.472,71.471,71.472
		s71.471-31.999,71.471-71.472S159.715,391.377,120.242,391.377z M120.347,499.02l-43.218-36.9l16.506-26.324h53.42l16.509,26.324
		L120.347,499.02z"/>
</g>
<g id="Layer_2">
</g>
</svg>
